HIERARCHY
ROOT Hips
{
	OFFSET -0.179506 -22.333345 2.821913
	CHANNELS 6 Xposition Yposition Zposition Zrotation Yrotation Xrotation 
	JOINT LeftUpLeg
	{
		OFFSET 6.951974 -9.140623 -0.681533
		CHANNELS 3 Zrotation Yrotation Xrotation
		JOINT LeftLeg
		{
			OFFSET 3.427654 -37.519855 -0.449580
			CHANNELS 3 Zrotation Yrotation Xrotation
			JOINT LeftFoot
			{
				OFFSET -1.359570 -39.796059 -4.369333
				CHANNELS 3 Zrotation Yrotation Xrotation
				JOINT LeftToe
				{
					OFFSET 2.635814 -5.579078 11.928840
					CHANNELS 3 Zrotation Yrotation Xrotation
					End Site
					{
						OFFSET 0.000000 0.000000 0.000000
					}
				}
			}
		}
	}
	JOINT RightUpLeg
	{
		OFFSET -6.767048 -9.052170 -0.431982
		CHANNELS 3 Zrotation Yrotation Xrotation
		JOINT RightLeg
		{
			OFFSET -3.829005 -38.256897 -0.885003
			CHANNELS 3 Zrotation Yrotation Xrotation
			JOINT RightFoot
			{
				OFFSET 1.577377 -39.841461 -4.231180
				CHANNELS 3 Zrotation Yrotation Xrotation
				JOINT RightToe
				{
					OFFSET -2.537174 -4.814398 12.334795
					CHANNELS 3 Zrotation Yrotation Xrotation
					End Site
					{
						OFFSET 0.000000 0.000000 0.000000
					}
				}
			}
		}
	}
	JOINT Spine
	{
		OFFSET -0.253288 10.896323 -2.669631
		CHANNELS 3 Zrotation Yrotation Xrotation
		JOINT Spine1
		{
			OFFSET 0.548704 13.518043 0.109247
			CHANNELS 3 Zrotation Yrotation Xrotation
			JOINT Spine2
			{
				OFFSET 0.145701 5.292222 2.542457
				CHANNELS 3 Zrotation Yrotation Xrotation
				JOINT Neck
				{
					OFFSET -0.277840 21.387037 -4.285703
					CHANNELS 3 Zrotation Yrotation Xrotation
					JOINT Head
					{
						OFFSET 0.515184 6.496960 5.134897
						CHANNELS 3 Zrotation Yrotation Xrotation
						End Site
						{
							OFFSET 0.000000 0.000000 0.000000
						}
					}
				}
				JOINT LeftShoulder
				{
					OFFSET 7.884473 12.174932 -3.408961
					CHANNELS 3 Zrotation Yrotation Xrotation
					JOINT LeftArm
					{
						OFFSET 9.097692 3.046888 -0.886815
						CHANNELS 3 Zrotation Yrotation Xrotation
						JOINT LeftForeArm
						{
							OFFSET 25.961220 -1.277207 -2.745643
							CHANNELS 3 Zrotation Yrotation Xrotation
							JOINT LeftHand
							{
								OFFSET 24.923361 0.898606 -0.117091
								CHANNELS 3 Zrotation Yrotation Xrotation
								End Site
								{
									OFFSET 0.000000 0.000000 0.000000
								}
							}
						}
					}
				}
				JOINT RightShoulder
				{
					OFFSET -8.175920 11.883285 -3.861528
					CHANNELS 3 Zrotation Yrotation Xrotation
					JOINT RightArm
					{
						OFFSET -9.601238 3.255117 -0.914307
						CHANNELS 3 Zrotation Yrotation Xrotation
						JOINT RightForeArm
						{
							OFFSET -25.374195 -1.332924 -2.140099
							CHANNELS 3 Zrotation Yrotation Xrotation
							JOINT RightHand
							{
								OFFSET -25.529810 0.777228 -0.555919
								CHANNELS 3 Zrotation Yrotation Xrotation
								End Site
								{
									OFFSET 0.000000 0.000000 0.000000
								}
							}
						}
					}
				}
			}
		}
	}
}
MOTION
Frames: 16
Frame Time: 0.033333
-52.500198 -334.242462 87.634773 -171.578736 2.395444 86.794831 2.652676 6.833741 21.386641 -2.383078 -11.472006 3.900971 3.420595 11.863848 -29.918472 nan nan nan -1.591281 -0.534318 -28.532142 1.342977 -13.718650 16.366666 7.018982 -9.028165 -12.348862 nan nan nan 0.419332 -6.712648 13.688995 2.942540 -1.222637 3.085421 1.477096 -3.479645 2.116591 3.110835 4.517137 -0.537276 -2.425677 -1.957738 4.455592 -26.731401 -0.815361 2.208565 -56.926588 -13.154349 15.260391 -0.292003 -32.597755 14.654012 -3.752698 -14.845366 -6.014656 28.380134 1.141696 2.069612 57.322407 0.752005 14.015784 -13.352731 19.270342 -5.120213 8.975773 7.431811 1.240128 
-52.492233 -333.717377 87.434700 -170.320027 2.470228 87.244274 3.065083 6.435384 20.686506 -2.472646 -11.764377 4.879545 3.807114 11.248320 -30.508984 nan nan nan -1.956276 -0.967910 -28.944154 1.454221 -14.307610 15.302076 7.258704 -9.322235 -12.274724 nan nan nan 0.523641 -6.837112 13.920511 3.302399 -1.877372 2.355479 1.488232 -3.822639 2.346316 3.346381 4.634890 -1.240586 -2.642944 -2.036614 5.186511 -26.564167 -0.710908 2.324400 -57.347619 -13.752054 15.105474 -0.147621 -32.296891 14.804838 -4.259502 -15.301885 -5.511406 28.186899 0.853526 1.935594 57.401498 0.782717 14.109238 -13.347329 19.383665 -4.663714 9.325657 7.643528 1.126079 
-52.447441 -333.025269 87.261711 -170.498530 2.554243 87.403412 3.502954 6.647874 20.990181 -2.631380 -12.063411 5.007146 3.726664 10.769123 -30.447644 nan nan nan -1.770029 -0.838933 -29.364030 1.376186 -14.301525 14.743766 7.208500 -9.397510 -12.275328 nan nan nan 0.648144 -6.962779 13.882623 3.341966 -1.805407 2.380769 1.459938 -3.761277 2.370768 3.340340 4.742990 -1.398865 -2.693967 -2.057488 5.190703 -26.434967 -0.737904 2.212630 -57.466817 -13.974908 15.127637 -0.273179 -31.964553 14.727550 -4.399890 -15.306616 -5.715842 28.112183 0.901502 1.981156 57.490385 0.992229 14.177818 -13.243002 19.112845 -4.434099 9.663873 7.416509 1.122182 
-52.467514 -332.043457 87.148521 -171.236221 2.237213 87.147583 3.465141 7.336344 22.431070 -2.846817 -12.734137 4.720549 2.498560 10.803274 -29.924751 nan nan nan -1.785510 -0.930968 -29.254316 1.517566 -13.829283 14.371010 6.772379 -9.054672 -12.689626 nan nan nan 0.367314 -6.959175 13.376748 3.105177 -1.504868 3.607746 1.584461 -3.573543 1.877747 3.150132 4.849680 -0.551780 -2.599383 -1.921263 4.241682 -26.891227 -0.664354 2.048201 -56.745664 -13.711054 15.101039 -0.691559 -32.305230 15.794819 -3.990882 -15.085789 -6.312097 28.346386 1.097871 2.268871 57.347145 0.983947 14.041087 -13.351998 18.991460 -4.181405 9.571242 7.351380 1.253724 
-52.540401 -331.191437 87.005219 -171.123276 2.073465 87.146405 3.542195 7.689298 23.160081 -2.686177 -13.131516 4.547643 2.181721 10.691409 -29.781818 nan nan nan -2.034538 -1.253301 -29.212595 1.765603 -13.659752 13.774860 6.692113 -8.969198 -12.888080 nan nan nan 0.438307 -7.007133 13.145123 2.986624 -1.523272 3.982929 1.610336 -3.697519 1.724683 3.133895 4.809955 -0.232382 -2.585370 -1.847180 3.815384 -27.148198 -0.549916 1.988915 -56.511962 -13.784275 14.974397 -0.939483 -32.461043 16.583513 -3.860625 -14.431760 -6.335685 28.417621 0.954891 2.354167 57.187038 1.019497 13.893653 -13.373951 19.059207 -3.980613 9.434302 7.127381 1.329981 
-52.505569 -330.444122 86.901825 -171.405636 2.156502 87.160804 3.915913 7.968277 23.836066 -2.730396 -13.303135 4.322238 1.813975 10.636123 -29.639977 nan nan nan -1.819591 -1.010868 -29.361972 1.655130 -13.415614 13.447923 6.472529 -8.962389 -12.653271 nan nan nan 0.507775 -7.086429 13.353690 2.968617 -1.182867 3.974311 1.720590 -3.710941 1.584053 3.107970 4.729978 -0.153631 -2.558334 -1.817954 3.637406 -27.329811 -0.593874 1.952602 -56.291118 -13.770665 14.938091 -1.231759 -32.627827 17.030404 -3.254681 -14.364394 -5.969302 28.461293 1.010141 2.386589 56.977197 0.878910 13.821810 -13.270941 19.195500 -3.937200 8.828424 7.200019 1.416077 
-52.420742 -329.739105 86.722061 -170.730001 2.141195 87.668734 4.368783 7.805590 23.481271 -3.006004 -13.661256 4.873468 1.758801 10.239466 -29.820118 nan nan nan -2.021190 -1.206133 -29.889825 1.621265 -13.591031 13.090909 6.433278 -9.193445 -12.557642 nan nan nan 0.414425 -7.189875 13.138418 3.231166 -1.478744 3.609154 1.772192 -3.863526 1.677265 3.183727 4.683743 -0.347804 -2.550648 -1.915478 3.798057 -27.273448 -0.530234 2.152651 -56.343351 -13.987459 14.988083 -1.373215 -32.669759 17.271017 -2.919280 -14.277585 -5.994392 28.503158 0.684212 2.307686 56.788781 0.837628 13.875351 -13.053912 19.403615 -3.411846 8.692972 7.073838 1.653175 
-52.395222 -329.040161 86.614166 -170.264114 2.027903 87.753482 4.461973 7.561047 23.636761 -3.020029 -14.105246 5.296676 1.498296 10.209253 -29.894117 nan nan nan -2.320463 -1.257385 -29.990912 1.579581 -13.681724 12.941132 6.666744 -9.317256 -12.560567 nan nan nan 0.311746 -7.388076 13.561331 3.333967 -1.770166 3.259966 1.784872 -3.851725 1.601653 3.223145 4.774320 -0.539356 -2.460788 -1.922105 3.911753 -27.055778 -0.723858 2.261994 -56.156466 -13.929964 15.199571 -1.684155 -32.831959 17.480157 -2.609569 -14.229821 -6.323645 28.616556 0.708309 2.232642 56.605916 0.753869 13.934595 -12.837622 19.497626 -3.247101 8.401809 6.789232 2.217220 
-52.374470 -328.234619 86.489296 -169.910750 2.073408 87.960770 4.728895 7.314780 23.850561 -3.060142 -14.373395 5.504492 1.342911 10.062149 -29.870604 nan nan nan -2.487125 -1.200609 -30.170718 1.641938 -13.597487 12.942254 6.558087 -9.306167 -12.627188 nan nan nan 0.507732 -7.679667 13.471398 3.358411 -1.913436 3.231318 1.779787 -3.846210 1.591756 3.183867 4.803402 -0.654336 -2.566121 -1.823691 3.965483 -27.144647 -0.596250 2.225797 -56.419903 -14.099450 14.851657 -1.322693 -32.597376 16.712112 -2.768366 -14.197396 -5.943955 28.614381 0.704433 2.294867 56.510942 0.747499 13.931580 -12.893164 19.623620 -3.242538 8.306081 6.453605 2.115644 
-52.293625 -327.383057 86.337723 -169.723754 2.115701 88.296413 5.100680 7.141054 23.947780 -3.400626 -14.881277 5.833681 0.758903 10.039307 -29.651632 nan nan nan -2.508960 -1.095241 -30.628176 1.655676 -13.274509 13.369135 6.430559 -9.469542 -12.812460 nan nan nan 0.548904 -7.877352 13.092887 3.586032 -2.038964 3.495268 1.649564 -3.816442 1.455271 3.295554 4.978417 -0.576954 -2.632461 -1.865443 3.674790 -27.241966 -0.627279 2.073340 -55.640667 -13.834761 15.429175 -2.103577 -33.083500 17.637883 -2.554787 -14.464343 -6.802163 28.670401 0.827604 2.161388 56.385032 0.419438 14.185253 -12.912779 19.822871 -3.738085 7.784761 6.671244 1.978505 
-52.297722 -326.447723 86.248970 -170.111474 2.186011 88.229478 5.310713 7.296676 24.813887 -3.357244 -15.241391 5.676421 -0.591354 9.856938 -29.131142 nan nan nan -2.396524 -0.856495 -30.742925 1.657043 -13.107908 14.225918 6.350537 -9.103422 -12.742066 nan nan nan 0.813111 -7.999389 13.012372 3.368575 -1.721368 3.834647 1.740442 -3.779142 1.334792 3.079709 4.972424 -0.526245 -2.660177 -1.692737 3.327696 -27.292845 -0.490987 1.867656 -56.266808 -13.895140 14.907110 -1.442238 -32.597691 16.753011 -2.536856 -14.484217 -6.558305 28.562058 0.809248 2.121561 56.477443 0.532886 13.975330 -13.046809 19.691742 -3.466253 7.834513 6.795838 2.155637 
-52.307129 -325.549591 86.174973 -169.965777 2.096653 88.227806 5.454122 7.339556 25.284713 -3.350303 -15.646269 5.939691 -1.393402 9.911196 -28.969696 nan nan nan -2.635547 -0.941185 -30.889627 1.775629 -13.082903 15.330290 6.347027 -9.024657 -12.494577 nan nan nan 0.906426 -8.161626 12.967311 3.333458 -1.782759 4.057640 1.693645 -3.760318 1.223717 2.998504 5.049949 -0.673368 -2.629137 -1.668117 3.225677 -27.180622 -0.766183 1.978833 -56.113966 -13.838882 14.965578 -1.498105 -32.498973 16.787854 -2.443307 -14.604711 -7.608220 28.639112 0.901496 2.204510 56.382095 0.481380 13.870508 -13.166834 19.816920 -3.455825 7.864382 6.819814 2.006757 
-52.299801 -324.555573 86.110252 -170.049805 2.001233 88.300596 5.573610 7.308460 25.839123 -3.388659 -15.652788 6.034648 -1.831301 10.061635 -28.570222 nan nan nan -2.788106 -0.921678 -31.136739 1.944254 -12.980147 16.696740 6.240476 -8.926649 -11.962705 nan nan nan 0.905792 -8.246045 12.582052 3.314264 -1.711794 4.553689 1.741976 -3.691975 1.079988 2.916187 5.083937 -0.632064 -2.627218 -1.564038 2.917089 -27.309657 -0.896418 2.033292 -56.121751 -13.896782 14.944778 -1.237769 -32.119743 16.263658 -2.557693 -14.858683 -7.834893 28.874477 0.864739 2.363105 56.079042 0.520761 13.725080 -13.311667 19.953266 -3.692929 8.013403 6.831347 1.611645 
-52.285988 -323.556885 86.054420 -170.154173 1.893064 88.405169 5.563120 7.206439 26.290331 -3.326924 -15.901104 6.207998 -2.007983 10.314738 -28.064674 nan nan nan -2.897918 -0.987370 -31.446901 2.129430 -12.990112 18.252693 6.084597 -8.712011 -11.231439 nan nan nan 0.859648 -8.160118 12.173907 3.382628 -1.617090 4.969669 1.778601 -3.741724 0.948794 2.796696 5.069948 -0.466800 -2.525482 -1.492230 2.677781 -27.239583 -1.244840 2.087117 -56.135346 -13.831704 15.390379 -1.166854 -31.655986 16.007707 -2.214948 -15.091085 -8.229763 28.917780 0.980393 2.475637 55.726973 0.360633 13.764885 -13.053295 20.151827 -4.095370 7.325713 7.075123 0.898390 
-52.048138 -322.756348 86.020790 -169.700838 1.975695 88.705582 5.980894 6.642091 25.756166 -3.767346 -15.679505 7.509090 -1.893416 10.216010 -28.075784 nan nan nan -2.785610 -0.842234 -32.009777 1.731140 -13.576342 19.795629 5.919704 -9.624776 -10.719981 nan nan nan 0.611789 -8.265848 12.524125 3.753225 -1.704252 4.351204 1.893945 -3.877907 1.086953 2.903790 5.098970 -1.071700 -2.677741 -1.619653 3.182079 -27.078209 -1.147828 2.073189 -55.995491 -13.829815 15.354413 -1.515530 -31.828781 15.914933 -2.368225 -15.080326 -7.829937 28.838865 0.927829 2.340197 55.761182 0.232048 13.966785 -13.107637 20.391183 -4.404638 7.219373 7.239098 0.901353 
-52.012451 -321.718750 86.057281 -169.674528 1.960724 88.750451 6.057418 6.456849 26.123500 -3.744887 -15.854833 8.087690 -2.124807 10.167040 -27.850407 nan nan nan -2.805011 -0.913495 -32.140509 1.673867 -13.853870 21.378248 5.555253 -9.699557 -11.016031 nan nan nan 0.798807 -8.435848 12.176988 3.736393 -1.732797 4.815441 1.774420 -3.914894 0.942540 2.886632 5.265285 -1.132193 -2.731968 -1.579211 3.041418 -27.370447 -1.296278 2.171597 -55.456187 -13.472318 15.175663 -1.603968 -32.264909 15.452032 -2.730941 -14.697277 -7.467481 29.036799 1.174989 2.612128 55.571591 0.172471 13.874204 -13.264299 20.653655 -4.599591 7.210946 7.040769 1.127023 
